<svg version="1.1" id="Layer_1" xmlns="http://www.w3.org/2000/svg" xmlns:xlink="http://www.w3.org/1999/xlink" x="0px" y="0px"
	 width="100%" viewBox="0 0 1080 950" enable-background="new 0 0 1080 950" xml:space="preserve">
<path fill="#0A192F" opacity="1.000000" stroke="none" 
	d="
M1081.000000,353.000000 
	C1081.000000,552.642151 1081.000000,751.784363 1081.000000,950.963257 
	C721.068787,950.963257 361.137573,950.963257 1.103186,950.963257 
	C1.103186,634.441101 1.103186,317.882172 1.103186,1.161623 
	C360.999939,1.161623 720.999939,1.161623 1081.000000,1.161623 
	C1081.000000,118.195885 1081.000000,235.347946 1081.000000,353.000000 
M144.380203,725.126953 
	C185.704285,796.720459 227.052551,868.299988 268.278290,939.950073 
	C270.257782,943.390442 272.360565,944.740173 276.417877,944.719482 
	C311.082153,944.542725 345.747711,944.618225 380.412903,944.618225 
	C522.073486,944.618225 663.734070,944.608704 805.394653,944.671875 
	C808.973022,944.673462 811.486450,944.213806 813.372742,940.524719 
	C817.143372,933.150208 821.585571,926.119751 825.732605,918.936951 
	C849.762573,877.316833 873.792297,835.696533 897.812439,794.070801 
	C925.989929,745.240540 954.152649,696.401733 982.330383,647.571594 
	C1014.333313,592.112610 1046.316528,536.642090 1078.433105,481.248871 
	C1080.197998,478.204834 1080.065308,476.111816 1078.349854,473.159088 
	C1058.721191,439.372894 1039.254272,405.492859 1019.720215,371.651733 
	C991.203186,322.248383 962.658081,272.861328 934.140259,223.458420 
	C893.811768,153.595261 853.479187,83.734352 813.242554,13.818315 
	C811.638489,11.031115 810.038696,9.880311 806.695129,9.882111 
	C629.536133,9.977467 452.377045,9.974046 275.218018,9.902145 
	C272.191406,9.900917 270.461456,10.737232 268.935364,13.445499 
	C260.698700,28.062649 252.250732,42.560833 243.861664,57.091976 
	C215.258179,106.637474 186.640640,156.174866 158.043915,205.724258 
	C124.303398,264.186279 90.580017,322.658203 56.847160,381.124664 
	C39.136650,411.820831 21.466309,442.540405 3.637793,473.167908 
	C1.912736,476.131378 1.789357,478.239075 3.573338,481.264618 
	C13.869927,498.727173 23.909653,516.341187 34.042393,533.900391 
	C70.702278,597.428833 107.364594,660.955933 144.380203,725.126953 
z"/>
<path fill="#64FFDA" opacity="1.000000" stroke="none" 
	d="
M144.203094,724.805237 
	C107.364594,660.955933 70.702278,597.428833 34.042393,533.900391 
	C23.909653,516.341187 13.869927,498.727173 3.573338,481.264618 
	C1.789357,478.239075 1.912736,476.131378 3.637793,473.167908 
	C21.466309,442.540405 39.136650,411.820831 56.847160,381.124664 
	C90.580017,322.658203 124.303398,264.186279 158.043915,205.724258 
	C186.640640,156.174866 215.258179,106.637474 243.861664,57.091976 
	C252.250732,42.560833 260.698700,28.062649 268.935364,13.445499 
	C270.461456,10.737232 272.191406,9.900917 275.218018,9.902145 
	C452.377045,9.974046 629.536133,9.977467 806.695129,9.882111 
	C810.038696,9.880311 811.638489,11.031115 813.242554,13.818315 
	C853.479187,83.734352 893.811768,153.595261 934.140259,223.458420 
	C962.658081,272.861328 991.203186,322.248383 1019.720215,371.651733 
	C1039.254272,405.492859 1058.721191,439.372894 1078.349854,473.159088 
	C1080.065308,476.111816 1080.197998,478.204834 1078.433105,481.248871 
	C1046.316528,536.642090 1014.333313,592.112610 982.330383,647.571594 
	C954.152649,696.401733 925.989929,745.240540 897.812439,794.070801 
	C873.792297,835.696533 849.762573,877.316833 825.732605,918.936951 
	C821.585571,926.119751 817.143372,933.150208 813.372742,940.524719 
	C811.486450,944.213806 808.973022,944.673462 805.394653,944.671875 
	C663.734070,944.608704 522.073486,944.618225 380.412903,944.618225 
	C345.747711,944.618225 311.082153,944.542725 276.417877,944.719482 
	C272.360565,944.740173 270.257782,943.390442 268.278290,939.950073 
	C227.052551,868.299988 185.704285,796.720459 144.203094,724.805237 
M245.654419,220.148087 
	C196.183914,305.860443 146.713409,391.572784 97.212730,477.337433 
	C98.125938,478.871277 99.159348,480.563354 100.151192,482.279449 
	C122.022629,520.120911 143.899536,557.959229 165.754807,595.810059 
	C198.022339,651.693604 230.271637,707.587830 262.533020,763.474976 
	C280.570312,794.721436 298.686340,825.922974 316.560059,857.262756 
	C318.544556,860.742371 320.786133,861.565918 324.481171,861.563843 
	C468.808746,861.481873 613.136353,861.477722 757.463867,861.580505 
	C761.461975,861.583374 763.630188,860.392456 765.654785,856.866211 
	C795.950500,804.100586 826.419006,751.434204 856.840637,698.740906 
	C898.422180,626.717590 939.965027,554.671692 981.667175,482.718231 
	C983.974854,478.736511 984.040894,475.820099 981.731262,471.825287 
	C909.569153,347.011322 837.510254,222.137665 765.551514,97.206322 
	C763.612854,93.840599 761.578918,92.746368 757.764038,92.749115 
	C613.269836,92.853271 468.775604,92.852242 324.281403,92.754028 
	C320.502380,92.751457 318.420349,93.764290 316.472168,97.168144 
	C293.095978,138.010910 269.522675,178.740860 245.654419,220.148087 
z"/>
<path fill="#0A192F" opacity="1.000000" stroke="none" 
	d="
M245.827637,219.824188 
	C269.522675,178.740860 293.095978,138.010910 316.472168,97.168144 
	C318.420349,93.764290 320.502380,92.751457 324.281403,92.754028 
	C468.775604,92.852242 613.269836,92.853271 757.764038,92.749115 
	C761.578918,92.746368 763.612854,93.840599 765.551514,97.206322 
	C837.510254,222.137665 909.569153,347.011322 981.731262,471.825287 
	C984.040894,475.820099 983.974854,478.736511 981.667175,482.718231 
	C939.965027,554.671692 898.422180,626.717590 856.840637,698.740906 
	C826.419006,751.434204 795.950500,804.100586 765.654785,856.866211 
	C763.630188,860.392456 761.461975,861.583374 757.463867,861.580505 
	C613.136353,861.477722 468.808746,861.481873 324.481171,861.563843 
	C320.786133,861.565918 318.544556,860.742371 316.560059,857.262756 
	C298.686340,825.922974 280.570312,794.721436 262.533020,763.474976 
	C230.271637,707.587830 198.022339,651.693604 165.754807,595.810059 
	C143.899536,557.959229 122.022629,520.120911 100.151192,482.279449 
	C99.159348,480.563354 98.125938,478.871277 97.212730,477.337433 
	C146.713409,391.572784 196.183914,305.860443 245.827637,219.824188 
M538.499573,734.503784 
	C554.799622,734.503784 571.099731,734.503784 588.059326,734.503784 
	C588.059326,602.016602 588.059326,470.004486 588.059326,337.681458 
	C634.003540,337.681458 679.284912,337.681458 724.772644,337.681458 
	C724.772644,311.194336 724.772644,285.022156 724.772644,258.826904 
	C601.994751,258.826904 479.601837,258.826904 357.147583,258.826904 
	C357.147583,285.235992 357.147583,311.313141 357.147583,337.881561 
	C402.851868,337.881561 448.248322,337.881561 494.124023,337.881561 
	C494.124023,470.251709 494.124023,602.129700 494.124023,734.503662 
	C508.901794,734.503662 523.200623,734.503662 538.499573,734.503784 
z"/>
<path fill="#64FFDA" opacity="1.000000" stroke="none" 
	d="
M537.999512,734.503723 
	C523.200623,734.503662 508.901794,734.503662 494.124023,734.503662 
	C494.124023,602.129700 494.124023,470.251709 494.124023,337.881561 
	C448.248322,337.881561 402.851868,337.881561 357.147583,337.881561 
	C357.147583,311.313141 357.147583,285.235992 357.147583,258.826904 
	C479.601837,258.826904 601.994751,258.826904 724.772644,258.826904 
	C724.772644,285.022156 724.772644,311.194336 724.772644,337.681458 
	C679.284912,337.681458 634.003540,337.681458 588.059326,337.681458 
	C588.059326,470.004486 588.059326,602.016602 588.059326,734.503784 
	C571.099731,734.503784 554.799622,734.503784 537.999512,734.503723 
z"/>
</svg>